<svg width="85" height="85" viewBox="0 0 85 85" fill="none" xmlns="http://www.w3.org/2000/svg">
<rect width="85" height="85" rx="42.5" fill="#1C508A"/>
<path d="M34.612 39.256H35.884V41.968H38.56V43.24H35.884V46H34.612V43.24H31.924V41.968H34.612V39.256ZM41.2983 40.084H39.8703C39.9903 39.112 40.6743 37.96 42.5463 37.96C44.3103 37.96 45.1023 38.98 45.1023 40.072C45.1023 41.032 44.5503 41.5 44.1063 41.692V41.716C44.6823 41.92 45.4263 42.448 45.4263 43.66C45.4263 44.836 44.6943 46.144 42.5343 46.144C40.5303 46.144 39.7863 44.92 39.6903 43.864H41.1543C41.2743 44.464 41.7063 44.98 42.5823 44.98C43.4943 44.98 43.9143 44.392 43.9143 43.636C43.9143 42.796 43.4463 42.34 42.4743 42.34H41.8143V41.176H42.3903C43.2663 41.176 43.6263 40.864 43.6263 40.144C43.6263 39.544 43.2543 39.136 42.4983 39.136C41.6463 39.136 41.4063 39.604 41.2983 40.084ZM51.9852 39.952H50.5332C50.4252 39.508 50.1492 39.112 49.4172 39.112C48.2652 39.112 47.9412 40.192 47.8932 41.464C48.2172 41.008 48.7932 40.6 49.7532 40.6C51.2292 40.6 52.2132 41.68 52.2132 43.228C52.2132 44.872 51.1932 46.144 49.3932 46.144C47.1372 46.144 46.4172 44.38 46.4172 42.148C46.4172 40.06 47.1372 37.96 49.4892 37.96C51.1692 37.96 51.9012 39.028 51.9852 39.952ZM49.3572 44.944C50.3052 44.944 50.7132 44.212 50.7132 43.348C50.7132 42.556 50.4132 41.788 49.3692 41.788C48.5292 41.788 48.0012 42.292 48.0012 43.3C48.0012 43.948 48.3132 44.944 49.3572 44.944Z" fill="white"/>
</svg>
